<?xml version="1.0" encoding="UTF-8" standalone="no"?>
<!DOCTYPE svg PUBLIC "-//W3C//DTD SVG 1.1//EN"
 "http://www.w3.org/Graphics/SVG/1.1/DTD/svg11.dtd">
<!-- Generated by graphviz version 14.1.4 (20260321.0153)
 -->
<!-- Title: G Pages: 1 -->
<svg width="1113pt" height="98pt"
 viewBox="0.00 0.00 1113.00 98.00" xmlns="http://www.w3.org/2000/svg" xmlns:xlink="http://www.w3.org/1999/xlink">
<g id="graph0" class="graph" transform="scale(1 1) rotate(0) translate(4 94)">
<title>G</title>
<polygon fill="white" stroke="none" points="-4,4 -4,-94 1109,-94 1109,4 -4,4"/>
<!-- InfluxDB -->
<g id="node1" class="node">
<title>InfluxDB</title>
<path fill="none" stroke="black" d="M82,-90C82,-90 38.25,-90 38.25,-90 32.25,-90 26.25,-84 26.25,-78 26.25,-78 26.25,-66 26.25,-66 26.25,-60 32.25,-54 38.25,-54 38.25,-54 82,-54 82,-54 88,-54 94,-60 94,-66 94,-66 94,-78 94,-78 94,-84 88,-90 82,-90"/>
<text xml:space="preserve" text-anchor="middle" x="60.12" y="-66.95" font-family="Times New Roman,serif" font-size="14.00">InfluxDB</text>
</g>
<!-- ExtractCLI -->
<g id="node3" class="node">
<title>ExtractCLI</title>
<path fill="none" stroke="black" d="M253.25,-82C253.25,-82 168.25,-82 168.25,-82 162.25,-82 156.25,-76 156.25,-70 156.25,-70 156.25,-58 156.25,-58 156.25,-52 162.25,-46 168.25,-46 168.25,-46 253.25,-46 253.25,-46 259.25,-46 265.25,-52 265.25,-58 265.25,-58 265.25,-70 265.25,-70 265.25,-76 259.25,-82 253.25,-82"/>
<text xml:space="preserve" text-anchor="middle" x="210.75" y="-58.95" font-family="Times New Roman,serif" font-size="14.00">CLI: extract&#45;data</text>
</g>
<!-- InfluxDB&#45;&gt;ExtractCLI -->
<g id="edge3" class="edge">
<title>InfluxDB&#45;&gt;ExtractCLI</title>
<path fill="none" stroke="black" d="M94.48,-70.2C109.29,-69.41 127.26,-68.44 144.57,-67.51"/>
<polygon fill="black" stroke="black" points="144.49,-71.02 154.29,-66.99 144.11,-64.03 144.49,-71.02"/>
</g>
<!-- Config -->
<g id="node2" class="node">
<title>Config</title>
<path fill="none" stroke="black" d="M108.25,-36C108.25,-36 12,-36 12,-36 6,-36 0,-30 0,-24 0,-24 0,-12 0,-12 0,-6 6,0 12,0 12,0 108.25,0 108.25,0 114.25,0 120.25,-6 120.25,-12 120.25,-12 120.25,-24 120.25,-24 120.25,-30 114.25,-36 108.25,-36"/>
<text xml:space="preserve" text-anchor="middle" x="60.12" y="-12.95" font-family="Times New Roman,serif" font-size="14.00">config/config.yaml</text>
</g>
<!-- Config&#45;&gt;ExtractCLI -->
<g id="edge1" class="edge">
<title>Config&#45;&gt;ExtractCLI</title>
<path fill="none" stroke="black" d="M120.72,-36.44C128.72,-38.92 136.95,-41.47 145.03,-43.97"/>
<polygon fill="black" stroke="black" points="143.88,-47.28 154.46,-46.89 145.95,-40.59 143.88,-47.28"/>
</g>
<!-- AnalyzeCLI -->
<g id="node4" class="node">
<title>AnalyzeCLI</title>
<path fill="none" stroke="black" d="M701.75,-59C701.75,-59 614.5,-59 614.5,-59 608.5,-59 602.5,-53 602.5,-47 602.5,-47 602.5,-35 602.5,-35 602.5,-29 608.5,-23 614.5,-23 614.5,-23 701.75,-23 701.75,-23 707.75,-23 713.75,-29 713.75,-35 713.75,-35 713.75,-47 713.75,-47 713.75,-53 707.75,-59 701.75,-59"/>
<text xml:space="preserve" text-anchor="middle" x="658.12" y="-35.95" font-family="Times New Roman,serif" font-size="14.00">CLI: analyze&#45;gait</text>
</g>
<!-- Config&#45;&gt;AnalyzeCLI -->
<g id="edge2" class="edge">
<title>Config&#45;&gt;AnalyzeCLI</title>
<path fill="none" stroke="black" d="M120.65,-20.11C215.14,-23.49 405.3,-30.41 566.5,-37 574.31,-37.32 582.49,-37.66 590.62,-38.01"/>
<polygon fill="black" stroke="black" points="590.36,-41.51 600.5,-38.44 590.66,-34.51 590.36,-41.51"/>
</g>
<!-- Extractor -->
<g id="node5" class="node">
<title>Extractor</title>
<path fill="none" stroke="black" d="M427.5,-82C427.5,-82 313.25,-82 313.25,-82 307.25,-82 301.25,-76 301.25,-70 301.25,-70 301.25,-58 301.25,-58 301.25,-52 307.25,-46 313.25,-46 313.25,-46 427.5,-46 427.5,-46 433.5,-46 439.5,-52 439.5,-58 439.5,-58 439.5,-70 439.5,-70 439.5,-76 433.5,-82 427.5,-82"/>
<text xml:space="preserve" text-anchor="middle" x="370.38" y="-58.95" font-family="Times New Roman,serif" font-size="14.00">gait_analysis.extractor</text>
</g>
<!-- ExtractCLI&#45;&gt;Extractor -->
<g id="edge4" class="edge">
<title>ExtractCLI&#45;&gt;Extractor</title>
<path fill="none" stroke="black" d="M265.55,-64C273.25,-64 281.31,-64 289.38,-64"/>
<polygon fill="black" stroke="black" points="289.25,-67.5 299.25,-64 289.25,-60.5 289.25,-67.5"/>
</g>
<!-- Processor -->
<g id="node6" class="node">
<title>Processor</title>
<path fill="none" stroke="black" d="M879.75,-59C879.75,-59 761.75,-59 761.75,-59 755.75,-59 749.75,-53 749.75,-47 749.75,-47 749.75,-35 749.75,-35 749.75,-29 755.75,-23 761.75,-23 761.75,-23 879.75,-23 879.75,-23 885.75,-23 891.75,-29 891.75,-35 891.75,-35 891.75,-47 891.75,-47 891.75,-53 885.75,-59 879.75,-59"/>
<text xml:space="preserve" text-anchor="middle" x="820.75" y="-35.95" font-family="Times New Roman,serif" font-size="14.00">gait_analysis.processor</text>
</g>
<!-- AnalyzeCLI&#45;&gt;Processor -->
<g id="edge7" class="edge">
<title>AnalyzeCLI&#45;&gt;Processor</title>
<path fill="none" stroke="black" d="M713.95,-41C721.68,-41 729.75,-41 737.84,-41"/>
<polygon fill="black" stroke="black" points="737.75,-44.5 747.75,-41 737.75,-37.5 737.75,-44.5"/>
</g>
<!-- HDF5 -->
<g id="node7" class="node">
<title>HDF5</title>
<path fill="none" stroke="black" d="M554.5,-82C554.5,-82 487.5,-82 487.5,-82 481.5,-82 475.5,-76 475.5,-70 475.5,-70 475.5,-58 475.5,-58 475.5,-52 481.5,-46 487.5,-46 487.5,-46 554.5,-46 554.5,-46 560.5,-46 566.5,-52 566.5,-58 566.5,-58 566.5,-70 566.5,-70 566.5,-76 560.5,-82 554.5,-82"/>
<text xml:space="preserve" text-anchor="middle" x="521" y="-58.95" font-family="Times New Roman,serif" font-size="14.00">HDF5 dataset</text>
</g>
<!-- Extractor&#45;&gt;HDF5 -->
<g id="edge5" class="edge">
<title>Extractor&#45;&gt;HDF5</title>
<path fill="none" stroke="black" d="M439.6,-64C447.7,-64 455.9,-64 463.8,-64"/>
<polygon fill="black" stroke="black" points="463.62,-67.5 473.62,-64 463.62,-60.5 463.62,-67.5"/>
</g>
<!-- Reports -->
<g id="node8" class="node">
<title>Reports</title>
<path fill="none" stroke="black" d="M1093,-59C1093,-59 939.75,-59 939.75,-59 933.75,-59 927.75,-53 927.75,-47 927.75,-47 927.75,-35 927.75,-35 927.75,-29 933.75,-23 939.75,-23 939.75,-23 1093,-23 1093,-23 1099,-23 1105,-29 1105,-35 1105,-35 1105,-47 1105,-47 1105,-53 1099,-59 1093,-59"/>
<text xml:space="preserve" text-anchor="middle" x="1016.38" y="-35.95" font-family="Times New Roman,serif" font-size="14.00">reports/metrics_summary.csv</text>
</g>
<!-- Processor&#45;&gt;Reports -->
<g id="edge8" class="edge">
<title>Processor&#45;&gt;Reports</title>
<path fill="none" stroke="black" d="M892.2,-41C899.99,-41 908.03,-41 916.09,-41"/>
<polygon fill="black" stroke="black" points="915.96,-44.5 925.96,-41 915.96,-37.5 915.96,-44.5"/>
</g>
<!-- HDF5&#45;&gt;AnalyzeCLI -->
<g id="edge6" class="edge">
<title>HDF5&#45;&gt;AnalyzeCLI</title>
<path fill="none" stroke="black" d="M566.99,-56.34C574.81,-55.01 583.07,-53.6 591.3,-52.2"/>
<polygon fill="black" stroke="black" points="591.7,-55.69 600.97,-50.56 590.53,-48.79 591.7,-55.69"/>
</g>
</g>
</svg>
