<?xml version="1.0" encoding="UTF-8" standalone="no"?>
<!DOCTYPE svg PUBLIC "-//W3C//DTD SVG 1.1//EN"
 "http://www.w3.org/Graphics/SVG/1.1/DTD/svg11.dtd">
<!-- Generated by graphviz version 2.43.0 (0)
 -->
<!-- Title: Classes Pages: 1 -->
<svg width="3294pt" height="133pt"
 viewBox="0.00 0.00 3294.00 133.00" xmlns="http://www.w3.org/2000/svg" xmlns:xlink="http://www.w3.org/1999/xlink">
<g id="graph0" class="graph" transform="scale(1 1) rotate(0) translate(4 129)">
<title>Classes</title>
<polygon fill="white" stroke="transparent" points="-4,4 -4,-129 3290,-129 3290,4 -4,4"/>
<!-- influx_cfg -->
<g id="node1" class="node">
<title>influx_cfg</title>
<path fill="none" stroke="black" d="M285.5,-0.5C285.5,-0.5 661.5,-0.5 661.5,-0.5 667.5,-0.5 673.5,-6.5 673.5,-12.5 673.5,-12.5 673.5,-24.5 673.5,-24.5 673.5,-30.5 667.5,-36.5 661.5,-36.5 661.5,-36.5 285.5,-36.5 285.5,-36.5 279.5,-36.5 273.5,-30.5 273.5,-24.5 273.5,-24.5 273.5,-12.5 273.5,-12.5 273.5,-6.5 279.5,-0.5 285.5,-0.5"/>
<text text-anchor="middle" x="325" y="-14.8" font-family="Times,serif" font-size="14.00">InfluxConfig</text>
<polyline fill="none" stroke="black" points="376.5,-0.5 376.5,-36.5 "/>
<text text-anchor="middle" x="407.5" y="-14.8" font-family="Times,serif" font-size="14.00">url:str</text>
<polyline fill="none" stroke="black" points="438.5,-0.5 438.5,-36.5 "/>
<text text-anchor="middle" x="479" y="-14.8" font-family="Times,serif" font-size="14.00">token:str</text>
<polyline fill="none" stroke="black" points="519.5,-0.5 519.5,-36.5 "/>
<text text-anchor="middle" x="552" y="-14.8" font-family="Times,serif" font-size="14.00">org:str</text>
<polyline fill="none" stroke="black" points="584.5,-0.5 584.5,-36.5 "/>
<text text-anchor="middle" x="629" y="-14.8" font-family="Times,serif" font-size="14.00">bucket:str</text>
</g>
<!-- process_cfg -->
<g id="node2" class="node">
<title>process_cfg</title>
<path fill="none" stroke="black" d="M858.5,-0.5C858.5,-0.5 1772.5,-0.5 1772.5,-0.5 1778.5,-0.5 1784.5,-6.5 1784.5,-12.5 1784.5,-12.5 1784.5,-24.5 1784.5,-24.5 1784.5,-30.5 1778.5,-36.5 1772.5,-36.5 1772.5,-36.5 858.5,-36.5 858.5,-36.5 852.5,-36.5 846.5,-30.5 846.5,-24.5 846.5,-24.5 846.5,-12.5 846.5,-12.5 846.5,-6.5 852.5,-0.5 858.5,-0.5"/>
<text text-anchor="middle" x="905.5" y="-14.8" font-family="Times,serif" font-size="14.00">ProcessConfig</text>
<polyline fill="none" stroke="black" points="964.5,-0.5 964.5,-36.5 "/>
<text text-anchor="middle" x="997" y="-14.8" font-family="Times,serif" font-size="14.00">fs:float</text>
<polyline fill="none" stroke="black" points="1029.5,-0.5 1029.5,-36.5 "/>
<text text-anchor="middle" x="1111" y="-14.8" font-family="Times,serif" font-size="14.00">cutoff_pressure:float</text>
<polyline fill="none" stroke="black" points="1192.5,-0.5 1192.5,-36.5 "/>
<text text-anchor="middle" x="1258.5" y="-14.8" font-family="Times,serif" font-size="14.00">cutoff_gyro:float</text>
<polyline fill="none" stroke="black" points="1324.5,-0.5 1324.5,-36.5 "/>
<text text-anchor="middle" x="1425" y="-14.8" font-family="Times,serif" font-size="14.00">min_peak_distance_s:float</text>
<polyline fill="none" stroke="black" points="1525.5,-0.5 1525.5,-36.5 "/>
<text text-anchor="middle" x="1640" y="-14.8" font-family="Times,serif" font-size="14.00">minute_block_duration_s:float</text>
<polyline fill="none" stroke="black" points="1754.5,-0.5 1754.5,-36.5 "/>
<text text-anchor="middle" x="1769.5" y="-14.8" font-family="Times,serif" font-size="14.00">...</text>
</g>
<!-- postgres_cfg -->
<g id="node3" class="node">
<title>postgres_cfg</title>
<path fill="none" stroke="black" d="M1814.5,-0.5C1814.5,-0.5 2472.5,-0.5 2472.5,-0.5 2478.5,-0.5 2484.5,-6.5 2484.5,-12.5 2484.5,-12.5 2484.5,-24.5 2484.5,-24.5 2484.5,-30.5 2478.5,-36.5 2472.5,-36.5 2472.5,-36.5 1814.5,-36.5 1814.5,-36.5 1808.5,-36.5 1802.5,-30.5 1802.5,-24.5 1802.5,-24.5 1802.5,-12.5 1802.5,-12.5 1802.5,-6.5 1808.5,-0.5 1814.5,-0.5"/>
<text text-anchor="middle" x="1865" y="-14.8" font-family="Times,serif" font-size="14.00">PostgresConfig</text>
<polyline fill="none" stroke="black" points="1927.5,-0.5 1927.5,-36.5 "/>
<text text-anchor="middle" x="1963.5" y="-14.8" font-family="Times,serif" font-size="14.00">host:str</text>
<polyline fill="none" stroke="black" points="1999.5,-0.5 1999.5,-36.5 "/>
<text text-anchor="middle" x="2036" y="-14.8" font-family="Times,serif" font-size="14.00">user:str</text>
<polyline fill="none" stroke="black" points="2072.5,-0.5 2072.5,-36.5 "/>
<text text-anchor="middle" x="2127.5" y="-14.8" font-family="Times,serif" font-size="14.00">password:str</text>
<polyline fill="none" stroke="black" points="2182.5,-0.5 2182.5,-36.5 "/>
<text text-anchor="middle" x="2235.5" y="-14.8" font-family="Times,serif" font-size="14.00">database:str</text>
<polyline fill="none" stroke="black" points="2288.5,-0.5 2288.5,-36.5 "/>
<text text-anchor="middle" x="2324" y="-14.8" font-family="Times,serif" font-size="14.00">port:int</text>
<polyline fill="none" stroke="black" points="2359.5,-0.5 2359.5,-36.5 "/>
<text text-anchor="middle" x="2407" y="-14.8" font-family="Times,serif" font-size="14.00">schema:str</text>
<polyline fill="none" stroke="black" points="2454.5,-0.5 2454.5,-36.5 "/>
<text text-anchor="middle" x="2469.5" y="-14.8" font-family="Times,serif" font-size="14.00">...</text>
</g>
<!-- selector -->
<g id="node4" class="node">
<title>selector</title>
<path fill="none" stroke="black" d="M2515,-0.5C2515,-0.5 3274,-0.5 3274,-0.5 3280,-0.5 3286,-6.5 3286,-12.5 3286,-12.5 3286,-24.5 3286,-24.5 3286,-30.5 3280,-36.5 3274,-36.5 3274,-36.5 2515,-36.5 2515,-36.5 2509,-36.5 2503,-30.5 2503,-24.5 2503,-24.5 2503,-12.5 2503,-12.5 2503,-6.5 2509,-0.5 2515,-0.5"/>
<text text-anchor="middle" x="2562" y="-14.8" font-family="Times,serif" font-size="14.00">EventSelector</text>
<polyline fill="none" stroke="black" points="2621,-0.5 2621,-36.5 "/>
<text text-anchor="middle" x="2668.5" y="-14.8" font-family="Times,serif" font-size="14.00">ids:list[int]</text>
<polyline fill="none" stroke="black" points="2716,-0.5 2716,-36.5 "/>
<text text-anchor="middle" x="2780" y="-14.8" font-family="Times,serif" font-size="14.00">codeids:list[str]</text>
<polyline fill="none" stroke="black" points="2844,-0.5 2844,-36.5 "/>
<text text-anchor="middle" x="2918" y="-14.8" font-family="Times,serif" font-size="14.00">test_types:list[str]</text>
<polyline fill="none" stroke="black" points="2992,-0.5 2992,-36.5 "/>
<text text-anchor="middle" x="3070.5" y="-14.8" font-family="Times,serif" font-size="14.00">date_from:datetime</text>
<polyline fill="none" stroke="black" points="3149,-0.5 3149,-36.5 "/>
<text text-anchor="middle" x="3217.5" y="-14.8" font-family="Times,serif" font-size="14.00">date_to:datetime</text>
</g>
<!-- extractor -->
<g id="node5" class="node">
<title>extractor</title>
<path fill="none" stroke="black" d="M12,-88.5C12,-88.5 935,-88.5 935,-88.5 941,-88.5 947,-94.5 947,-100.5 947,-100.5 947,-112.5 947,-112.5 947,-118.5 941,-124.5 935,-124.5 935,-124.5 12,-124.5 12,-124.5 6,-124.5 0,-118.5 0,-112.5 0,-112.5 0,-100.5 0,-100.5 0,-94.5 6,-88.5 12,-88.5"/>
<text text-anchor="middle" x="74.5" y="-102.8" font-family="Times,serif" font-size="14.00">GaitDataExtractor</text>
<polyline fill="none" stroke="black" points="149,-88.5 149,-124.5 "/>
<text text-anchor="middle" x="238" y="-102.8" font-family="Times,serif" font-size="14.00">run_batch_extraction()</text>
<polyline fill="none" stroke="black" points="327,-88.5 327,-124.5 "/>
<text text-anchor="middle" x="457" y="-102.8" font-family="Times,serif" font-size="14.00">run_batch_extraction_from_rows()</text>
<polyline fill="none" stroke="black" points="587,-88.5 587,-124.5 "/>
<text text-anchor="middle" x="671.5" y="-102.8" font-family="Times,serif" font-size="14.00">audit_registry_rows()</text>
<polyline fill="none" stroke="black" points="756,-88.5 756,-124.5 "/>
<text text-anchor="middle" x="820" y="-102.8" font-family="Times,serif" font-size="14.00">list_hdf5_keys()</text>
<polyline fill="none" stroke="black" points="884,-88.5 884,-124.5 "/>
<text text-anchor="middle" x="915.5" y="-102.8" font-family="Times,serif" font-size="14.00">close()</text>
</g>
<!-- extractor&#45;&gt;influx_cfg -->
<g id="edge1" class="edge">
<title>extractor&#45;&gt;influx_cfg</title>
<path fill="none" stroke="black" d="M473.5,-88.1C473.5,-76.25 473.5,-60.32 473.5,-46.79"/>
<polygon fill="black" stroke="black" points="477,-46.58 473.5,-36.58 470,-46.58 477,-46.58"/>
<text text-anchor="middle" x="506" y="-58.8" font-family="Times,serif" font-size="14.00">validates</text>
</g>
<!-- processor -->
<g id="node6" class="node">
<title>processor</title>
<path fill="none" stroke="black" d="M977.5,-88.5C977.5,-88.5 1653.5,-88.5 1653.5,-88.5 1659.5,-88.5 1665.5,-94.5 1665.5,-100.5 1665.5,-100.5 1665.5,-112.5 1665.5,-112.5 1665.5,-118.5 1659.5,-124.5 1653.5,-124.5 1653.5,-124.5 977.5,-124.5 977.5,-124.5 971.5,-124.5 965.5,-118.5 965.5,-112.5 965.5,-112.5 965.5,-100.5 965.5,-100.5 965.5,-94.5 971.5,-88.5 977.5,-88.5"/>
<text text-anchor="middle" x="1041" y="-102.8" font-family="Times,serif" font-size="14.00">GaitDataProcessor</text>
<polyline fill="none" stroke="black" points="1116.5,-88.5 1116.5,-124.5 "/>
<text text-anchor="middle" x="1186" y="-102.8" font-family="Times,serif" font-size="14.00">process_signals()</text>
<polyline fill="none" stroke="black" points="1255.5,-88.5 1255.5,-124.5 "/>
<text text-anchor="middle" x="1339" y="-102.8" font-family="Times,serif" font-size="14.00">_detect_gait_events()</text>
<polyline fill="none" stroke="black" points="1422.5,-88.5 1422.5,-124.5 "/>
<text text-anchor="middle" x="1529" y="-102.8" font-family="Times,serif" font-size="14.00">_compute_minute_metrics()</text>
<polyline fill="none" stroke="black" points="1635.5,-88.5 1635.5,-124.5 "/>
<text text-anchor="middle" x="1650.5" y="-102.8" font-family="Times,serif" font-size="14.00">...</text>
</g>
<!-- processor&#45;&gt;process_cfg -->
<g id="edge2" class="edge">
<title>processor&#45;&gt;process_cfg</title>
<path fill="none" stroke="black" d="M1315.5,-88.1C1315.5,-76.25 1315.5,-60.32 1315.5,-46.79"/>
<polygon fill="black" stroke="black" points="1319,-46.58 1315.5,-36.58 1312,-46.58 1319,-46.58"/>
<text text-anchor="middle" x="1332" y="-58.8" font-family="Times,serif" font-size="14.00">uses</text>
</g>
<!-- repo -->
<g id="node7" class="node">
<title>repo</title>
<path fill="none" stroke="black" d="M2188.5,-88.5C2188.5,-88.5 2850.5,-88.5 2850.5,-88.5 2856.5,-88.5 2862.5,-94.5 2862.5,-100.5 2862.5,-100.5 2862.5,-112.5 2862.5,-112.5 2862.5,-118.5 2856.5,-124.5 2850.5,-124.5 2850.5,-124.5 2188.5,-124.5 2188.5,-124.5 2182.5,-124.5 2176.5,-118.5 2176.5,-112.5 2176.5,-112.5 2176.5,-100.5 2176.5,-100.5 2176.5,-94.5 2182.5,-88.5 2188.5,-88.5"/>
<text text-anchor="middle" x="2300.5" y="-102.8" font-family="Times,serif" font-size="14.00">HealthywearPostgresRepository</text>
<polyline fill="none" stroke="black" points="2424.5,-88.5 2424.5,-124.5 "/>
<text text-anchor="middle" x="2483" y="-102.8" font-family="Times,serif" font-size="14.00">fetch_events()</text>
<polyline fill="none" stroke="black" points="2541.5,-88.5 2541.5,-124.5 "/>
<text text-anchor="middle" x="2620" y="-102.8" font-family="Times,serif" font-size="14.00">upsert_test_result()</text>
<polyline fill="none" stroke="black" points="2698.5,-88.5 2698.5,-124.5 "/>
<text text-anchor="middle" x="2780.5" y="-102.8" font-family="Times,serif" font-size="14.00">upsert_test_results()</text>
</g>
<!-- repo&#45;&gt;postgres_cfg -->
<g id="edge3" class="edge">
<title>repo&#45;&gt;postgres_cfg</title>
<path fill="none" stroke="black" d="M2444.76,-88.41C2382.23,-74.1 2293.03,-53.7 2227.92,-38.81"/>
<polygon fill="black" stroke="black" points="2228.62,-35.38 2218.09,-36.56 2227.06,-42.2 2228.62,-35.38"/>
<text text-anchor="middle" x="2387" y="-58.8" font-family="Times,serif" font-size="14.00">validates</text>
</g>
<!-- repo&#45;&gt;selector -->
<g id="edge4" class="edge">
<title>repo&#45;&gt;selector</title>
<path fill="none" stroke="black" d="M2594.04,-88.41C2656.41,-74.1 2745.37,-53.7 2810.3,-38.81"/>
<polygon fill="black" stroke="black" points="2811.14,-42.21 2820.1,-36.56 2809.58,-35.39 2811.14,-42.21"/>
<text text-anchor="middle" x="2774.5" y="-58.8" font-family="Times,serif" font-size="14.00">queries with</text>
</g>
</g>
</svg>
