<?xml version="1.0" encoding="UTF-8" standalone="no"?>
<!DOCTYPE svg PUBLIC "-//W3C//DTD SVG 1.1//EN"
 "http://www.w3.org/Graphics/SVG/1.1/DTD/svg11.dtd">
<!-- Generated by graphviz version 2.43.0 (0)
 -->
<!-- Title: Sequence Pages: 1 -->
<svg width="1234pt" height="283pt"
 viewBox="0.00 0.00 1234.00 282.63" xmlns="http://www.w3.org/2000/svg" xmlns:xlink="http://www.w3.org/1999/xlink">
<g id="graph0" class="graph" transform="scale(1 1) rotate(0) translate(4 278.63)">
<title>Sequence</title>
<polygon fill="white" stroke="transparent" points="-4,4 -4,-278.63 1230,-278.63 1230,4 -4,4"/>
<!-- cli_extract -->
<g id="node1" class="node">
<title>cli_extract</title>
<path fill="none" stroke="black" d="M54,-172.13C54,-172.13 134,-172.13 134,-172.13 140,-172.13 146,-178.13 146,-184.13 146,-184.13 146,-198.13 146,-198.13 146,-204.13 140,-210.13 134,-210.13 134,-210.13 54,-210.13 54,-210.13 48,-210.13 42,-204.13 42,-198.13 42,-198.13 42,-184.13 42,-184.13 42,-178.13 48,-172.13 54,-172.13"/>
<text text-anchor="middle" x="94" y="-194.93" font-family="Times,serif" font-size="14.00">CLI</text>
<text text-anchor="middle" x="94" y="-179.93" font-family="Times,serif" font-size="14.00">extract&#45;data</text>
</g>
<!-- repo -->
<g id="node2" class="node">
<title>repo</title>
<path fill="none" stroke="black" d="M480,-127.13C480,-127.13 704,-127.13 704,-127.13 710,-127.13 716,-133.13 716,-139.13 716,-139.13 716,-151.13 716,-151.13 716,-157.13 710,-163.13 704,-163.13 704,-163.13 480,-163.13 480,-163.13 474,-163.13 468,-157.13 468,-151.13 468,-151.13 468,-139.13 468,-139.13 468,-133.13 474,-127.13 480,-127.13"/>
<text text-anchor="middle" x="592" y="-141.43" font-family="Times,serif" font-size="14.00">HealthywearPostgresRepository</text>
</g>
<!-- cli_extract&#45;&gt;repo -->
<g id="edge1" class="edge">
<title>cli_extract&#45;&gt;repo</title>
<path fill="none" stroke="black" d="M146,-189.68C215.09,-187.32 342.19,-181.61 450,-169.13 460.87,-167.87 472.19,-166.33 483.46,-164.65"/>
<polygon fill="black" stroke="black" points="483.99,-168.11 493.35,-163.14 482.93,-161.19 483.99,-168.11"/>
<text text-anchor="middle" x="328" y="-189.93" font-family="Times,serif" font-size="14.00">fetch_events(selector)</text>
</g>
<!-- extractor -->
<g id="node3" class="node">
<title>extractor</title>
<path fill="none" stroke="black" d="M529.5,-211.13C529.5,-211.13 654.5,-211.13 654.5,-211.13 660.5,-211.13 666.5,-217.13 666.5,-223.13 666.5,-223.13 666.5,-235.13 666.5,-235.13 666.5,-241.13 660.5,-247.13 654.5,-247.13 654.5,-247.13 529.5,-247.13 529.5,-247.13 523.5,-247.13 517.5,-241.13 517.5,-235.13 517.5,-235.13 517.5,-223.13 517.5,-223.13 517.5,-217.13 523.5,-211.13 529.5,-211.13"/>
<text text-anchor="middle" x="592" y="-225.43" font-family="Times,serif" font-size="14.00">GaitDataExtractor</text>
</g>
<!-- cli_extract&#45;&gt;extractor -->
<g id="edge3" class="edge">
<title>cli_extract&#45;&gt;extractor</title>
<path fill="none" stroke="black" d="M146,-199.42C164.82,-202.23 186.34,-205.15 206,-207.13 309.44,-217.52 429.04,-223.4 507.14,-226.42"/>
<polygon fill="black" stroke="black" points="507.28,-229.92 517.4,-226.81 507.54,-222.93 507.28,-229.92"/>
<text text-anchor="middle" x="328" y="-226.93" font-family="Times,serif" font-size="14.00">run_batch_extraction_from_rows()</text>
</g>
<!-- repo&#45;&gt;cli_extract -->
<g id="edge2" class="edge">
<title>repo&#45;&gt;cli_extract</title>
<path fill="none" stroke="black" d="M467.72,-136.15C391.65,-133.22 292.43,-134.1 206,-150.13 185.7,-153.89 164.24,-161.02 145.65,-168.29"/>
<polygon fill="black" stroke="black" points="144.18,-165.1 136.21,-172.08 146.8,-171.6 144.18,-165.1"/>
<text text-anchor="middle" x="328" y="-153.93" font-family="Times,serif" font-size="14.00">event rows</text>
</g>
<!-- results -->
<g id="node8" class="node">
<title>results</title>
<path fill="none" stroke="black" d="M1042,-118.13C1042,-118.13 1214,-118.13 1214,-118.13 1220,-118.13 1226,-124.13 1226,-130.13 1226,-130.13 1226,-142.13 1226,-142.13 1226,-148.13 1220,-154.13 1214,-154.13 1214,-154.13 1042,-154.13 1042,-154.13 1036,-154.13 1030,-148.13 1030,-142.13 1030,-142.13 1030,-130.13 1030,-130.13 1030,-124.13 1036,-118.13 1042,-118.13"/>
<text text-anchor="middle" x="1128" y="-132.43" font-family="Times,serif" font-size="14.00">healthywear_test_results</text>
</g>
<!-- repo&#45;&gt;results -->
<g id="edge11" class="edge">
<title>repo&#45;&gt;results</title>
<path fill="none" stroke="black" d="M716.18,-143.05C807.88,-141.51 931.84,-139.42 1019.54,-137.94"/>
<polygon fill="black" stroke="black" points="1019.84,-141.43 1029.78,-137.77 1019.72,-134.44 1019.84,-141.43"/>
<text text-anchor="middle" x="873" y="-146.93" font-family="Times,serif" font-size="14.00">INSERT ... ON CONFLICT DO UPDATE</text>
</g>
<!-- influx -->
<g id="node4" class="node">
<title>influx</title>
<path fill="none" stroke="black" d="M1100.5,-238.13C1100.5,-238.13 1155.5,-238.13 1155.5,-238.13 1161.5,-238.13 1167.5,-244.13 1167.5,-250.13 1167.5,-250.13 1167.5,-262.13 1167.5,-262.13 1167.5,-268.13 1161.5,-274.13 1155.5,-274.13 1155.5,-274.13 1100.5,-274.13 1100.5,-274.13 1094.5,-274.13 1088.5,-268.13 1088.5,-262.13 1088.5,-262.13 1088.5,-250.13 1088.5,-250.13 1088.5,-244.13 1094.5,-238.13 1100.5,-238.13"/>
<text text-anchor="middle" x="1128" y="-252.43" font-family="Times,serif" font-size="14.00">InfluxDB</text>
</g>
<!-- extractor&#45;&gt;influx -->
<g id="edge4" class="edge">
<title>extractor&#45;&gt;influx</title>
<path fill="none" stroke="black" d="M666.7,-224.43C750.61,-220.21 891.65,-216.55 1012,-230.13 1034.01,-232.61 1057.96,-237.64 1078.28,-242.62"/>
<polygon fill="black" stroke="black" points="1077.69,-246.08 1088.24,-245.13 1079.4,-239.29 1077.69,-246.08"/>
<text text-anchor="middle" x="873" y="-233.93" font-family="Times,serif" font-size="14.00">query_data_frame()</text>
</g>
<!-- hdf5 -->
<g id="node5" class="node">
<title>hdf5</title>
<path fill="none" stroke="black" d="M1090,-173.13C1090,-173.13 1166,-173.13 1166,-173.13 1172,-173.13 1178,-179.13 1178,-185.13 1178,-185.13 1178,-197.13 1178,-197.13 1178,-203.13 1172,-209.13 1166,-209.13 1166,-209.13 1090,-209.13 1090,-209.13 1084,-209.13 1078,-203.13 1078,-197.13 1078,-197.13 1078,-185.13 1078,-185.13 1078,-179.13 1084,-173.13 1090,-173.13"/>
<text text-anchor="middle" x="1128" y="-187.43" font-family="Times,serif" font-size="14.00">HDF5 store</text>
</g>
<!-- extractor&#45;&gt;hdf5 -->
<g id="edge6" class="edge">
<title>extractor&#45;&gt;hdf5</title>
<path fill="none" stroke="black" d="M666.54,-212.06C688.16,-207.71 711.92,-203.58 734,-201.13 851.83,-188.03 990.69,-188.1 1067.8,-189.5"/>
<polygon fill="black" stroke="black" points="1067.74,-193 1077.8,-189.7 1067.87,-186 1067.74,-193"/>
<text text-anchor="middle" x="873" y="-204.93" font-family="Times,serif" font-size="14.00">to_hdf(key per foot)</text>
</g>
<!-- influx&#45;&gt;extractor -->
<g id="edge5" class="edge">
<title>influx&#45;&gt;extractor</title>
<path fill="none" stroke="black" d="M1088.46,-256.13C1017.99,-255.9 863.7,-254.29 734,-245.13 715.46,-243.82 695.6,-241.89 676.81,-239.82"/>
<polygon fill="black" stroke="black" points="677.13,-236.34 666.8,-238.7 676.35,-243.29 677.13,-236.34"/>
<text text-anchor="middle" x="873" y="-258.93" font-family="Times,serif" font-size="14.00">raw gait dataframe</text>
</g>
<!-- cli_analyze -->
<g id="node6" class="node">
<title>cli_analyze</title>
<path fill="none" stroke="black" d="M12,-48.13C12,-48.13 176,-48.13 176,-48.13 182,-48.13 188,-54.13 188,-60.13 188,-60.13 188,-74.13 188,-74.13 188,-80.13 182,-86.13 176,-86.13 176,-86.13 12,-86.13 12,-86.13 6,-86.13 0,-80.13 0,-74.13 0,-74.13 0,-60.13 0,-60.13 0,-54.13 6,-48.13 12,-48.13"/>
<text text-anchor="middle" x="94" y="-70.93" font-family="Times,serif" font-size="14.00">CLI</text>
<text text-anchor="middle" x="94" y="-55.93" font-family="Times,serif" font-size="14.00">analyze&#45;gait / run_batch</text>
</g>
<!-- cli_analyze&#45;&gt;repo -->
<g id="edge10" class="edge">
<title>cli_analyze&#45;&gt;repo</title>
<path fill="none" stroke="black" d="M169.96,-86.14C181.96,-88.77 194.28,-91.21 206,-93.13 313.5,-110.7 342.27,-100.02 450,-116.13 466.63,-118.61 484.26,-121.8 501.22,-125.14"/>
<polygon fill="black" stroke="black" points="500.62,-128.59 511.11,-127.12 501.99,-121.72 500.62,-128.59"/>
<text text-anchor="middle" x="328" y="-119.93" font-family="Times,serif" font-size="14.00">upsert_test_result()</text>
</g>
<!-- cli_analyze&#45;&gt;hdf5 -->
<g id="edge7" class="edge">
<title>cli_analyze&#45;&gt;hdf5</title>
<path fill="none" stroke="black" d="M188.23,-69.02C407.66,-74.16 943.47,-91.02 1012,-134.13 1024.84,-142.2 1017.91,-153.97 1030,-163.13 1041.13,-171.56 1054.73,-177.45 1068.18,-181.57"/>
<polygon fill="black" stroke="black" points="1067.34,-184.97 1077.91,-184.27 1069.21,-178.23 1067.34,-184.97"/>
<text text-anchor="middle" x="592" y="-94.93" font-family="Times,serif" font-size="14.00">read trial</text>
</g>
<!-- processor -->
<g id="node7" class="node">
<title>processor</title>
<path fill="none" stroke="black" d="M528.5,-3.13C528.5,-3.13 655.5,-3.13 655.5,-3.13 661.5,-3.13 667.5,-9.13 667.5,-15.13 667.5,-15.13 667.5,-27.13 667.5,-27.13 667.5,-33.13 661.5,-39.13 655.5,-39.13 655.5,-39.13 528.5,-39.13 528.5,-39.13 522.5,-39.13 516.5,-33.13 516.5,-27.13 516.5,-27.13 516.5,-15.13 516.5,-15.13 516.5,-9.13 522.5,-3.13 528.5,-3.13"/>
<text text-anchor="middle" x="592" y="-17.43" font-family="Times,serif" font-size="14.00">GaitDataProcessor</text>
</g>
<!-- cli_analyze&#45;&gt;processor -->
<g id="edge8" class="edge">
<title>cli_analyze&#45;&gt;processor</title>
<path fill="none" stroke="black" d="M126.21,-47.97C147.75,-35.91 177.54,-21.46 206,-15.13 307.16,7.39 427,0.44 505.79,-8.56"/>
<polygon fill="black" stroke="black" points="505.81,-12.08 516.15,-9.78 506.63,-5.13 505.81,-12.08"/>
<text text-anchor="middle" x="328" y="-18.93" font-family="Times,serif" font-size="14.00">process_signals()</text>
</g>
<!-- processor&#45;&gt;cli_analyze -->
<g id="edge9" class="edge">
<title>processor&#45;&gt;cli_analyze</title>
<path fill="none" stroke="black" d="M516.39,-26.38C438.76,-32.07 313.73,-41.86 206,-53.13 203.46,-53.39 200.9,-53.67 198.31,-53.95"/>
<polygon fill="black" stroke="black" points="197.78,-50.49 188.23,-55.08 198.56,-57.44 197.78,-50.49"/>
<text text-anchor="middle" x="328" y="-56.93" font-family="Times,serif" font-size="14.00">metrics + events</text>
</g>
</g>
</svg>
