<?xml version="1.0" encoding="UTF-8" standalone="no"?>
<!DOCTYPE svg PUBLIC "-//W3C//DTD SVG 1.1//EN"
 "http://www.w3.org/Graphics/SVG/1.1/DTD/svg11.dtd">
<!-- Generated by graphviz version 2.43.0 (0)
 -->
<!-- Title: ResultObject Pages: 1 -->
<svg width="2784pt" height="118pt"
 viewBox="0.00 0.00 2784.00 118.00" xmlns="http://www.w3.org/2000/svg" xmlns:xlink="http://www.w3.org/1999/xlink">
<g id="graph0" class="graph" transform="scale(1 1) rotate(0) translate(4 114)">
<title>ResultObject</title>
<polygon fill="white" stroke="transparent" points="-4,4 -4,-114 2780,-114 2780,4 -4,4"/>
<!-- result -->
<g id="node1" class="node">
<title>result</title>
<path fill="none" stroke="black" d="M889,-73.5C889,-73.5 1981,-73.5 1981,-73.5 1987,-73.5 1993,-79.5 1993,-85.5 1993,-85.5 1993,-97.5 1993,-97.5 1993,-103.5 1987,-109.5 1981,-109.5 1981,-109.5 889,-109.5 889,-109.5 883,-109.5 877,-103.5 877,-97.5 877,-97.5 877,-85.5 877,-85.5 877,-79.5 883,-73.5 889,-73.5"/>
<text text-anchor="middle" x="923" y="-87.8" font-family="Times,serif" font-size="14.00">TestResult</text>
<polyline fill="none" stroke="black" points="969,-73.5 969,-109.5 "/>
<text text-anchor="middle" x="1067" y="-87.8" font-family="Times,serif" font-size="14.00">healthywear_event_id:int</text>
<polyline fill="none" stroke="black" points="1165,-73.5 1165,-109.5 "/>
<text text-anchor="middle" x="1221.5" y="-87.8" font-family="Times,serif" font-size="14.00">patient_id:str</text>
<polyline fill="none" stroke="black" points="1278,-73.5 1278,-109.5 "/>
<text text-anchor="middle" x="1331.5" y="-87.8" font-family="Times,serif" font-size="14.00">test_type:str</text>
<polyline fill="none" stroke="black" points="1385,-73.5 1385,-109.5 "/>
<text text-anchor="middle" x="1419.5" y="-87.8" font-family="Times,serif" font-size="14.00">foot:str</text>
<polyline fill="none" stroke="black" points="1454,-73.5 1454,-109.5 "/>
<text text-anchor="middle" x="1533" y="-87.8" font-family="Times,serif" font-size="14.00">pipeline_version:str</text>
<polyline fill="none" stroke="black" points="1612,-73.5 1612,-109.5 "/>
<text text-anchor="middle" x="1689.5" y="-87.8" font-family="Times,serif" font-size="14.00">analysis_h5_key:str</text>
<polyline fill="none" stroke="black" points="1767,-73.5 1767,-109.5 "/>
<text text-anchor="middle" x="1880" y="-87.8" font-family="Times,serif" font-size="14.00">analysis_timestamp:datetime</text>
</g>
<!-- temporal -->
<g id="node2" class="node">
<title>temporal</title>
<path fill="none" stroke="black" d="M12,-0.5C12,-0.5 672,-0.5 672,-0.5 678,-0.5 684,-6.5 684,-12.5 684,-12.5 684,-24.5 684,-24.5 684,-30.5 678,-36.5 672,-36.5 672,-36.5 12,-36.5 12,-36.5 6,-36.5 0,-30.5 0,-24.5 0,-24.5 0,-12.5 0,-12.5 0,-6.5 6,-0.5 12,-0.5"/>
<text text-anchor="middle" x="71" y="-14.8" font-family="Times,serif" font-size="14.00">Temporal metrics</text>
<polyline fill="none" stroke="black" points="142,-0.5 142,-36.5 "/>
<text text-anchor="middle" x="197.5" y="-14.8" font-family="Times,serif" font-size="14.00">stride_time_*</text>
<polyline fill="none" stroke="black" points="253,-0.5 253,-36.5 "/>
<text text-anchor="middle" x="311" y="-14.8" font-family="Times,serif" font-size="14.00">stance_time_*</text>
<polyline fill="none" stroke="black" points="369,-0.5 369,-36.5 "/>
<text text-anchor="middle" x="424.5" y="-14.8" font-family="Times,serif" font-size="14.00">swing_time_*</text>
<polyline fill="none" stroke="black" points="480,-0.5 480,-36.5 "/>
<text text-anchor="middle" x="524" y="-14.8" font-family="Times,serif" font-size="14.00">cadence_*</text>
<polyline fill="none" stroke="black" points="568,-0.5 568,-36.5 "/>
<text text-anchor="middle" x="626" y="-14.8" font-family="Times,serif" font-size="14.00">minute slopes</text>
</g>
<!-- result&#45;&gt;temporal -->
<g id="edge1" class="edge">
<title>result&#45;&gt;temporal</title>
<path fill="none" stroke="black" d="M1173.2,-73.49C1004.31,-62.52 785.09,-48.28 614.19,-37.18"/>
<polygon fill="black" stroke="black" points="614.24,-33.68 604.03,-36.52 613.78,-40.66 614.24,-33.68"/>
</g>
<!-- spatial -->
<g id="node3" class="node">
<title>spatial</title>
<path fill="none" stroke="black" d="M714,-0.5C714,-0.5 1470,-0.5 1470,-0.5 1476,-0.5 1482,-6.5 1482,-12.5 1482,-12.5 1482,-24.5 1482,-24.5 1482,-30.5 1476,-36.5 1470,-36.5 1470,-36.5 714,-36.5 714,-36.5 708,-36.5 702,-30.5 702,-24.5 702,-24.5 702,-12.5 702,-12.5 702,-6.5 708,-0.5 714,-0.5"/>
<text text-anchor="middle" x="764.5" y="-14.8" font-family="Times,serif" font-size="14.00">Spatial metrics</text>
<polyline fill="none" stroke="black" points="827,-0.5 827,-36.5 "/>
<text text-anchor="middle" x="889.5" y="-14.8" font-family="Times,serif" font-size="14.00">spatial_method</text>
<polyline fill="none" stroke="black" points="952,-0.5 952,-36.5 "/>
<text text-anchor="middle" x="1028" y="-14.8" font-family="Times,serif" font-size="14.00">spatial_distance_m</text>
<polyline fill="none" stroke="black" points="1104,-0.5 1104,-36.5 "/>
<text text-anchor="middle" x="1204.5" y="-14.8" font-family="Times,serif" font-size="14.00">walking_speed_mean_m_s</text>
<polyline fill="none" stroke="black" points="1305,-0.5 1305,-36.5 "/>
<text text-anchor="middle" x="1393.5" y="-14.8" font-family="Times,serif" font-size="14.00">stride_length_mean_m</text>
</g>
<!-- result&#45;&gt;spatial -->
<g id="edge2" class="edge">
<title>result&#45;&gt;spatial</title>
<path fill="none" stroke="black" d="M1352.84,-73.49C1302.11,-62.99 1236.89,-49.49 1184.37,-38.62"/>
<polygon fill="black" stroke="black" points="1184.88,-35.15 1174.38,-36.55 1183.46,-42.01 1184.88,-35.15"/>
</g>
<!-- bilateral -->
<g id="node4" class="node">
<title>bilateral</title>
<path fill="none" stroke="black" d="M1512.5,-0.5C1512.5,-0.5 2045.5,-0.5 2045.5,-0.5 2051.5,-0.5 2057.5,-6.5 2057.5,-12.5 2057.5,-12.5 2057.5,-24.5 2057.5,-24.5 2057.5,-30.5 2051.5,-36.5 2045.5,-36.5 2045.5,-36.5 1512.5,-36.5 1512.5,-36.5 1506.5,-36.5 1500.5,-30.5 1500.5,-24.5 1500.5,-24.5 1500.5,-12.5 1500.5,-12.5 1500.5,-6.5 1506.5,-0.5 1512.5,-0.5"/>
<text text-anchor="middle" x="1569" y="-14.8" font-family="Times,serif" font-size="14.00">Bilateral metrics</text>
<polyline fill="none" stroke="black" points="1637.5,-0.5 1637.5,-36.5 "/>
<text text-anchor="middle" x="1722" y="-14.8" font-family="Times,serif" font-size="14.00">step&#45;time asymmetry</text>
<polyline fill="none" stroke="black" points="1806.5,-0.5 1806.5,-36.5 "/>
<text text-anchor="middle" x="1869" y="-14.8" font-family="Times,serif" font-size="14.00">double support</text>
<polyline fill="none" stroke="black" points="1931.5,-0.5 1931.5,-36.5 "/>
<text text-anchor="middle" x="1994.5" y="-14.8" font-family="Times,serif" font-size="14.00">availability flag</text>
</g>
<!-- result&#45;&gt;bilateral -->
<g id="edge3" class="edge">
<title>result&#45;&gt;bilateral</title>
<path fill="none" stroke="black" d="M1517.4,-73.49C1568.28,-62.99 1633.68,-49.49 1686.36,-38.62"/>
<polygon fill="black" stroke="black" points="1687.3,-42 1696.38,-36.55 1685.88,-35.15 1687.3,-42"/>
</g>
<!-- processing -->
<g id="node5" class="node">
<title>processing</title>
<path fill="none" stroke="black" d="M2088,-0.5C2088,-0.5 2764,-0.5 2764,-0.5 2770,-0.5 2776,-6.5 2776,-12.5 2776,-12.5 2776,-24.5 2776,-24.5 2776,-30.5 2770,-36.5 2764,-36.5 2764,-36.5 2088,-36.5 2088,-36.5 2082,-36.5 2076,-30.5 2076,-24.5 2076,-24.5 2076,-12.5 2076,-12.5 2076,-6.5 2082,-0.5 2088,-0.5"/>
<text text-anchor="middle" x="2167" y="-14.8" font-family="Times,serif" font-size="14.00">Processing provenance</text>
<polyline fill="none" stroke="black" points="2258,-0.5 2258,-36.5 "/>
<text text-anchor="middle" x="2272.5" y="-14.8" font-family="Times,serif" font-size="14.00">fs</text>
<polyline fill="none" stroke="black" points="2287,-0.5 2287,-36.5 "/>
<text text-anchor="middle" x="2350.5" y="-14.8" font-family="Times,serif" font-size="14.00">cutoff_pressure</text>
<polyline fill="none" stroke="black" points="2414,-0.5 2414,-36.5 "/>
<text text-anchor="middle" x="2462" y="-14.8" font-family="Times,serif" font-size="14.00">cutoff_gyro</text>
<polyline fill="none" stroke="black" points="2510,-0.5 2510,-36.5 "/>
<text text-anchor="middle" x="2556" y="-14.8" font-family="Times,serif" font-size="14.00">thresholds</text>
<polyline fill="none" stroke="black" points="2602,-0.5 2602,-36.5 "/>
<text text-anchor="middle" x="2689" y="-14.8" font-family="Times,serif" font-size="14.00">minute block duration</text>
</g>
<!-- result&#45;&gt;processing -->
<g id="edge4" class="edge">
<title>result&#45;&gt;processing</title>
<path fill="none" stroke="black" d="M1672.37,-73.49C1825.19,-62.54 2023.47,-48.34 2178.29,-37.25"/>
<polygon fill="black" stroke="black" points="2178.7,-40.73 2188.42,-36.52 2178.2,-33.74 2178.7,-40.73"/>
</g>
</g>
</svg>
