<?xml version="1.0" encoding="UTF-8" standalone="no"?>
<!DOCTYPE svg PUBLIC "-//W3C//DTD SVG 1.1//EN"
 "http://www.w3.org/Graphics/SVG/1.1/DTD/svg11.dtd">
<!-- Generated by graphviz version 2.43.0 (0)
 -->
<!-- Title: Context Pages: 1 -->
<svg width="1515pt" height="131pt"
 viewBox="0.00 0.00 1515.00 130.99" xmlns="http://www.w3.org/2000/svg" xmlns:xlink="http://www.w3.org/1999/xlink">
<g id="graph0" class="graph" transform="scale(1 1) rotate(0) translate(4 126.99)">
<title>Context</title>
<polygon fill="white" stroke="transparent" points="-4,4 -4,-126.99 1511,-126.99 1511,4 -4,4"/>
<!-- postgres -->
<g id="node1" class="node">
<title>postgres</title>
<path fill="none" stroke="black" d="M1495,-104.7C1495,-104.7 1175,-104.7 1175,-104.7 1169,-104.7 1163,-98.7 1163,-92.7 1163,-92.7 1163,-78.7 1163,-78.7 1163,-72.7 1169,-66.7 1175,-66.7 1175,-66.7 1495,-66.7 1495,-66.7 1501,-66.7 1507,-72.7 1507,-78.7 1507,-78.7 1507,-92.7 1507,-92.7 1507,-98.7 1501,-104.7 1495,-104.7"/>
<text text-anchor="middle" x="1335" y="-89.5" font-family="Times,serif" font-size="14.00">PostgreSQL</text>
<text text-anchor="middle" x="1335" y="-74.5" font-family="Times,serif" font-size="14.00">healthywear_event / healthywear_test_results</text>
</g>
<!-- influx -->
<g id="node2" class="node">
<title>influx</title>
<path fill="none" stroke="black" d="M928,-109.7C928,-109.7 776,-109.7 776,-109.7 770,-109.7 764,-103.7 764,-97.7 764,-97.7 764,-83.7 764,-83.7 764,-77.7 770,-71.7 776,-71.7 776,-71.7 928,-71.7 928,-71.7 934,-71.7 940,-77.7 940,-83.7 940,-83.7 940,-97.7 940,-97.7 940,-103.7 934,-109.7 928,-109.7"/>
<text text-anchor="middle" x="852" y="-94.5" font-family="Times,serif" font-size="14.00">InfluxDB</text>
<text text-anchor="middle" x="852" y="-79.5" font-family="Times,serif" font-size="14.00">raw wearable streams</text>
</g>
<!-- config -->
<g id="node3" class="node">
<title>config</title>
<path fill="none" stroke="black" d="M185,-81.7C185,-81.7 12,-81.7 12,-81.7 6,-81.7 0,-75.7 0,-69.7 0,-69.7 0,-55.7 0,-55.7 0,-49.7 6,-43.7 12,-43.7 12,-43.7 185,-43.7 185,-43.7 191,-43.7 197,-49.7 197,-55.7 197,-55.7 197,-69.7 197,-69.7 197,-75.7 191,-81.7 185,-81.7"/>
<text text-anchor="middle" x="98.5" y="-66.5" font-family="Times,serif" font-size="14.00">Configuration</text>
<text text-anchor="middle" x="98.5" y="-51.5" font-family="Times,serif" font-size="14.00">.env + config/config.yaml</text>
</g>
<!-- cli -->
<g id="node6" class="node">
<title>cli</title>
<path fill="none" stroke="black" d="M531,-81.7C531,-81.7 245,-81.7 245,-81.7 239,-81.7 233,-75.7 233,-69.7 233,-69.7 233,-55.7 233,-55.7 233,-49.7 239,-43.7 245,-43.7 245,-43.7 531,-43.7 531,-43.7 537,-43.7 543,-49.7 543,-55.7 543,-55.7 543,-69.7 543,-69.7 543,-75.7 537,-81.7 531,-81.7"/>
<text text-anchor="middle" x="388" y="-66.5" font-family="Times,serif" font-size="14.00">CLI orchestration</text>
<text text-anchor="middle" x="388" y="-51.5" font-family="Times,serif" font-size="14.00">extract&#45;data / analyze&#45;gait / run_batch.py</text>
</g>
<!-- config&#45;&gt;cli -->
<g id="edge1" class="edge">
<title>config&#45;&gt;cli</title>
<path fill="none" stroke="black" d="M197.24,-62.7C205.54,-62.7 214.08,-62.7 222.72,-62.7"/>
<polygon fill="black" stroke="black" points="222.89,-66.2 232.89,-62.7 222.89,-59.2 222.89,-66.2"/>
</g>
<!-- extract -->
<g id="node4" class="node">
<title>extract</title>
<path fill="none" stroke="black" d="M716,-81.7C716,-81.7 591,-81.7 591,-81.7 585,-81.7 579,-75.7 579,-69.7 579,-69.7 579,-55.7 579,-55.7 579,-49.7 585,-43.7 591,-43.7 591,-43.7 716,-43.7 716,-43.7 722,-43.7 728,-49.7 728,-55.7 728,-55.7 728,-69.7 728,-69.7 728,-75.7 722,-81.7 716,-81.7"/>
<text text-anchor="middle" x="653.5" y="-66.5" font-family="Times,serif" font-size="14.00">Extraction layer</text>
<text text-anchor="middle" x="653.5" y="-51.5" font-family="Times,serif" font-size="14.00">GaitDataExtractor</text>
</g>
<!-- extract&#45;&gt;influx -->
<g id="edge4" class="edge">
<title>extract&#45;&gt;influx</title>
<path fill="none" stroke="black" d="M728.23,-73.21C736.6,-74.4 745.23,-75.63 753.85,-76.86"/>
<polygon fill="black" stroke="black" points="753.55,-80.35 763.95,-78.29 754.54,-73.42 753.55,-80.35"/>
</g>
<!-- storage -->
<g id="node7" class="node">
<title>storage</title>
<path fill="none" stroke="black" d="M906,-53.7C906,-53.7 798,-53.7 798,-53.7 792,-53.7 786,-47.7 786,-41.7 786,-41.7 786,-27.7 786,-27.7 786,-21.7 792,-15.7 798,-15.7 798,-15.7 906,-15.7 906,-15.7 912,-15.7 918,-21.7 918,-27.7 918,-27.7 918,-41.7 918,-41.7 918,-47.7 912,-53.7 906,-53.7"/>
<text text-anchor="middle" x="852" y="-38.5" font-family="Times,serif" font-size="14.00">Local storage</text>
<text text-anchor="middle" x="852" y="-23.5" font-family="Times,serif" font-size="14.00">HDF5 + reports</text>
</g>
<!-- extract&#45;&gt;storage -->
<g id="edge5" class="edge">
<title>extract&#45;&gt;storage</title>
<path fill="none" stroke="black" d="M728.23,-52.19C743.77,-49.98 760.19,-47.64 775.79,-45.42"/>
<polygon fill="black" stroke="black" points="776.5,-48.85 785.9,-43.98 775.51,-41.92 776.5,-48.85"/>
</g>
<!-- process -->
<g id="node5" class="node">
<title>process</title>
<path fill="none" stroke="black" d="M1115,-53.7C1115,-53.7 988,-53.7 988,-53.7 982,-53.7 976,-47.7 976,-41.7 976,-41.7 976,-27.7 976,-27.7 976,-21.7 982,-15.7 988,-15.7 988,-15.7 1115,-15.7 1115,-15.7 1121,-15.7 1127,-21.7 1127,-27.7 1127,-27.7 1127,-41.7 1127,-41.7 1127,-47.7 1121,-53.7 1115,-53.7"/>
<text text-anchor="middle" x="1051.5" y="-38.5" font-family="Times,serif" font-size="14.00">Processing layer</text>
<text text-anchor="middle" x="1051.5" y="-23.5" font-family="Times,serif" font-size="14.00">GaitDataProcessor</text>
</g>
<!-- process&#45;&gt;postgres -->
<g id="edge8" class="edge">
<title>process&#45;&gt;postgres</title>
<path fill="none" stroke="black" d="M1127.2,-48.23C1155.34,-53.33 1188.05,-59.26 1219.03,-64.87"/>
<polygon fill="black" stroke="black" points="1218.55,-68.34 1229.01,-66.68 1219.8,-61.45 1218.55,-68.34"/>
</g>
<!-- cli&#45;&gt;postgres -->
<g id="edge2" class="edge">
<title>cli&#45;&gt;postgres</title>
<path fill="none" stroke="black" d="M488.82,-81.73C564.12,-95.07 670.13,-111.73 764,-118.7 903.98,-129.09 1063.49,-117.89 1178.11,-105.81"/>
<polygon fill="black" stroke="black" points="1178.79,-109.25 1188.36,-104.71 1178.05,-102.29 1178.79,-109.25"/>
</g>
<!-- cli&#45;&gt;extract -->
<g id="edge3" class="edge">
<title>cli&#45;&gt;extract</title>
<path fill="none" stroke="black" d="M543.04,-62.7C551.85,-62.7 560.52,-62.7 568.89,-62.7"/>
<polygon fill="black" stroke="black" points="568.94,-66.2 578.94,-62.7 568.94,-59.2 568.94,-66.2"/>
</g>
<!-- cli&#45;&gt;process -->
<g id="edge6" class="edge">
<title>cli&#45;&gt;process</title>
<path fill="none" stroke="black" d="M467.14,-43.68C574.05,-20.18 771.83,14.28 940,-6.7 951.97,-8.19 964.5,-10.56 976.65,-13.3"/>
<polygon fill="black" stroke="black" points="976.2,-16.8 986.74,-15.68 977.81,-9.98 976.2,-16.8"/>
</g>
<!-- storage&#45;&gt;process -->
<g id="edge7" class="edge">
<title>storage&#45;&gt;process</title>
<path fill="none" stroke="black" d="M918.22,-34.7C933.33,-34.7 949.64,-34.7 965.46,-34.7"/>
<polygon fill="black" stroke="black" points="965.78,-38.2 975.78,-34.7 965.78,-31.2 965.78,-38.2"/>
</g>
</g>
</svg>
